<?xml version="1.0" encoding="iso-8859-1"?>
<!-- Generator: Adobe Illustrator 19.0.0, SVG Export Plug-In . SVG Version: 6.00 Build 0)  -->
<!-- Source: https://www.svgrepo.com/svg/277719/wolf licensed under CC0 -->
<svg version="1.1" id="Layer_1" xmlns="http://www.w3.org/2000/svg" xmlns:xlink="http://www.w3.org/1999/xlink" x="0px" y="0px"
	 viewBox="0 0 511.989 511.989" style="enable-background:new 0 0 511.989 511.989;" xml:space="preserve">
<path style="fill:#CCD1D9;" d="M268.119,129.911c-2.859-1.992-6.508-2.461-9.781-1.258l-10.984,4.039l4.734-13.047
	c0.82-2.258,0.859-4.734,0.094-7.016l-9.555-28.671c-1.164-3.484-4.031-6.125-7.601-6.992c-3.562-0.867-7.328,0.156-9.961,2.719
	l-62.437,60.749l-30.866,9.351c-1.242,0.375-2.398,0.977-3.422,1.766c-0.859,0.664-21.429,16.57-47.381,40.617
	c-35.03,32.46-61.694,62.756-79.264,90.044c-2.109,3.281-2.258,7.469-0.391,10.891s5.461,5.547,9.359,5.547h22.218
	c-9.718,16.249-21.664,42.593-22.21,74.498c-0.07,4.094,2.219,7.874,5.891,9.718l15.781,7.891
	c1.273,14.297,7.219,48.016,34.796,75.452c3.172,3.156,7.977,4,12.031,2.125l20.265-9.438c3.625,5.422,8.82,13.031,14.445,20.719
	c19.796,27.077,27.984,32.374,35.452,32.374c8.578,0,17-7.25,30.039-25.874c2.945-4.219,5.688-8.406,7.961-12l19.679,14.469
	c4.109,3.016,9.773,2.719,13.531-0.734c20.875-19.156,24.82-45.858,25.171-61.202h10.281c5.766,0,10.492-4.562,10.664-10.343
	c1.453-48.594-26.445-117.342-31.983-130.467l0.492-79.42l35.562-50.304c1.266-1.797,1.953-3.953,1.953-6.156v-11.296
	C272.682,135.177,270.978,131.911,268.119,129.911z"/>
<path style="fill:#AAB2BC;" d="M234.675,285.837c0,0-39.991,28.374-53.421,28.124c-13.438-0.219-80.545-33.624-81.568-27.827
	s63.975,49.171,81.568,49.171C198.84,335.305,235.534,287.884,234.675,285.837z"/>
<path style="fill:#FFCE54;" d="M405.319,0c-58.812,0-106.67,47.851-106.67,106.662c0,58.818,47.858,106.669,106.67,106.669
	s106.669-47.851,106.669-106.669C511.988,47.85,464.131,0,405.319,0z"/>
<g>
	<path style="fill:#F6BB42;" d="M469.318,95.998c-5.891,0-10.672,4.773-10.672,10.664c0,5.89,4.781,10.671,10.672,10.671
		s10.672-4.781,10.672-10.671C479.99,100.771,475.209,95.998,469.318,95.998z"/>
	<path style="fill:#F6BB42;" d="M405.319,138.661c-5.891,0-10.672,4.781-10.672,10.671c0,5.891,4.781,10.664,10.672,10.664
		s10.672-4.773,10.672-10.664C415.991,143.442,411.21,138.661,405.319,138.661z"/>
	<path style="fill:#F6BB42;" d="M405.319,74.662c0-17.64-14.359-31.999-32-31.999S341.32,57.022,341.32,74.662
		c0,17.648,14.358,32,31.999,32S405.319,92.31,405.319,74.662z"/>
</g>
<g>
	<polygon style="fill:#AAB2BC;" points="31.71,298.649 24.538,314.476 70.155,266.182 	"/>
	<polygon style="fill:#AAB2BC;" points="138.599,147.52 127.817,191.402 162.629,140.434 	"/>
	<polygon style="fill:#AAB2BC;" points="247.354,132.692 250.94,122.809 231.401,146.825 258.338,128.653 	"/>
</g>
<g>
</g>
<g>
</g>
<g>
</g>
<g>
</g>
<g>
</g>
<g>
</g>
<g>
</g>
<g>
</g>
<g>
</g>
<g>
</g>
<g>
</g>
<g>
</g>
<g>
</g>
<g>
</g>
<g>
</g>
</svg>
