<svg id="Capa_1" enable-background="new 0 0 512 512" height="512" viewBox="0 0 512 512" width="512" xmlns="http://www.w3.org/2000/svg"><g><g><g><g><g><path d="m98.412 197.102h39.503v201.46h-39.503z" fill="#766d78" transform="matrix(.782 -.624 .624 .782 -159.921 138.661)"/><path d="m37.701 196.942c-12.226 9.751-14.233 27.567-4.482 39.793s27.567 14.233 39.793 4.482 14.233-27.567 4.483-39.793c-9.751-12.226-27.567-14.233-39.794-4.482z" fill="#6fbbc6"/></g><g><path d="m293.107 278.08h201.46v39.503h-201.46z" fill="#766d78" transform="matrix(.624 -.782 .782 .624 -84.575 420.034)"/><path d="m474.299 196.942c12.226 9.751 14.233 27.567 4.482 39.793s-27.567 14.233-39.793 4.482-14.233-27.567-4.482-39.793c9.75-12.226 27.566-14.233 39.793-4.482z" fill="#6fbbc6"/></g></g><path d="m399.86 504.5h-287.72c-102.46 0-27.98-188.09 123.24-207.79 12.94-1.68 28.3-1.68 41.24 0 151.22 19.7 225.7 207.79 123.24 207.79z" fill="#ebebeb"/><path d="m231.931 406.6c0 64.27-21.181 84.68-42.151 97.9h-77.64c-83.45 0-49.53-124.77 47.64-181.72 41.35 26.47 72.151 64.97 72.151 83.82z" fill="#5d91b9"/><path d="m399.86 504.5h-77.64c-20.97-13.22-42.151-33.63-42.151-97.9 0-18.85 30.801-57.35 72.151-83.82 97.17 56.95 131.09 181.72 47.64 181.72z" fill="#5d91b9"/><path d="m352.22 322.78c-5.177 3.314-10.187 6.816-14.993 10.445 84.58 60.413 110.213 171.275 31.55 171.275h31.083c83.45 0 49.53-124.77-47.64-181.72z" fill="#4980ac"/><circle cx="189.575" cy="427.22" fill="#f3d69e" r="17"/><circle cx="322.425" cy="427.22" fill="#f3d69e" r="17"/><path d="m101.066 297.589c67.176 14.165 130.865 81.903 130.865 109.011 0-36.68 3.337-83.837-24.603-124.77l35.496-52.24c-61.917 0-133.345 37.952-141.758 67.999z" fill="#d09180"/><path d="m410.934 297.589c-8.413-30.047-79.841-67.999-141.758-67.999l35.496 52.24c-27.94 40.933-24.603 88.09-24.603 124.77 0-27.108 63.689-94.846 130.865-109.011z" fill="#d09180"/><path d="m425.653 34.916c-51.847 2.697-167.097-18.446-210.56-26.894-10.97-2.132-22.164 2.385-28.565 11.545-6.116 8.753-13.489 20.711-19.031 34.117-5.167 1.745-30.352 14.525-49.415 26.292-8.368 5.165-11.836 15.595-8.201 24.732 12.668 31.84 18.816 87.801 18.816 108.249h254.607c0-24.037 8.566-97.097 26.09-122.462 7.982-11.554 12.592-18.307 25.677-39.798 4.345-7.136-1.074-16.215-9.418-15.781z" fill="#766d78"/><g fill="#ffcdbe"><path d="m384.398 188.309h-44.661v48.074h44.661c11.895 0 21.539-9.643 21.539-21.539v-4.996c0-11.895-9.644-21.539-21.539-21.539z"/><path d="m127.602 188.309h44.661v48.074h-44.661c-11.895 0-21.539-9.643-21.539-21.539v-4.996c0-11.895 9.644-21.539 21.539-21.539z"/></g><path d="m348.938 132.818c5.518 1.866 9.232 7.042 9.232 12.867v77.525c0 24.03-10.08 46.95-27.78 63.21l-44.4 40.76c-6.85 6.31-15.83 9.8-25.14 9.8h-9.7c-9.31 0-18.29-3.49-25.14-9.8l-44.4-40.76c-17.7-16.26-27.78-39.18-27.78-63.21v-71.406c0-4.066 1.823-7.908 4.962-10.492 16.246-13.374 33.827-31.761 38.578-41.262 28.14 28.82 70.9 40.85 70.9 40.85v-35.36z" fill="#ffcdbe"/><path d="m348.938 132.818-16.832-5.692c2.926 2.629 4.701 6.421 4.701 10.527v80.78c0 25.039-10.503 48.921-28.946 65.864l-46.264 42.471c-5.156 4.75-11.474 7.956-18.24 9.376 2.545.546 5.155.836 7.793.836h9.7c9.31 0 18.29-3.49 25.14-9.8l44.4-40.76c17.7-16.26 27.78-39.18 27.78-63.21v-77.525c0-5.824-3.714-11.001-9.232-12.867z" fill="#ebae9d"/><path d="m256 208.725c-24.543 0-73.619 17.026-93.502 52.044 4.661 9.57 11.103 18.294 19.112 25.651l44.4 40.76c6.85 6.31 15.83 9.8 25.14 9.8h9.7c9.31 0 18.29-3.49 25.14-9.8l44.4-40.76c8.009-7.357 14.451-16.081 19.112-25.651-19.883-35.018-68.959-52.044-93.502-52.044z" fill="#766d78"/><path d="m333.41 283.502c6.365-6.449 11.881-14.086 16.092-22.733-4.124-7.263-9.516-13.74-15.672-19.464-4.332 16.363-13.267 31.324-25.969 42.992l-46.264 42.471c-5.156 4.75-11.474 7.956-18.24 9.376 5.225 1.12 8.639.828 17.494.836 9.31.008 18.29-3.49 25.14-9.8-.001 0 47.325-43.582 47.419-43.678z" fill="#655e67"/></g></g><g><path d="m478.976 191.077c-15.44-12.313-38.019-9.772-50.334 5.669-5.513 6.914-8.039 15.259-7.771 23.473l-32.184 40.356c-7.453-5.336-16.086-10.465-25.707-15.211.121-.494.237-.99.35-1.486h21.071c16.013 0 29.04-13.027 29.04-29.04v-4.99c0-13.015-8.606-24.057-20.426-27.736 3.613-31.678 11.343-71.134 22.545-87.35 8.318-12.035 12.895-18.77 25.916-40.163 3.464-5.686 3.497-12.766.087-18.479-3.409-5.712-9.638-9.04-16.3-8.694-15.06.781-37.109-.473-65.532-3.721-4.109-.464-7.833 2.483-8.303 6.6-.471 4.115 2.484 7.833 6.6 8.303 29.244 3.342 52.128 4.621 68.017 3.798 1.507-.088 2.305.843 2.638 1.402.333.558.773 1.688-.019 2.989-12.806 21.039-17.293 27.642-25.445 39.437-15.446 22.362-22.748 73.825-25.144 94.573h-12.405v-35.125c0-9.048-5.759-17.074-14.329-19.972l-80.669-27.278c-2.292-.775-4.812-.397-6.774 1.011-1.964 1.409-3.128 3.677-3.128 6.094v24.892c-13.737-5.155-39.476-16.615-58.033-35.621-1.694-1.736-4.123-2.544-6.523-2.17-2.397.374-4.466 1.885-5.551 4.056-4.062 8.122-20.496 25.539-36.637 38.826-4.891 4.026-7.695 9.96-7.695 16.282v29.006h-12.389c-2.001-17.556-7.079-53.701-17.091-78.869-2.291-5.768-.119-12.319 5.17-15.58 19.043-11.76 43.735-24.172 47.884-25.577 2.05-.694 3.7-2.239 4.526-4.238 5.509-13.323 12.963-25.124 18.248-32.68 4.693-6.717 12.933-10.044 20.979-8.484 22.019 4.285 65.48 12.406 109.169 18.663 4.105.587 7.9-2.261 8.487-6.361.588-4.1-2.261-7.9-6.36-8.487-43.367-6.21-86.55-14.28-108.434-18.538-13.864-2.691-28.052 3.045-36.135 14.614-7.622 10.897-13.861 21.859-18.576 32.631-9.379 4.124-31.112 15.471-47.664 25.693-11.493 7.085-16.219 21.335-11.233 33.887 7.857 19.75 13.304 50.282 16.086 74.629-11.826 3.675-20.437 14.72-20.437 27.739v4.99c0 16.013 13.027 29.04 29.04 29.04h21.071c.113.496.229.992.35 1.486-9.622 4.746-18.254 9.876-25.707 15.211l-32.186-40.357c.268-8.214-2.258-16.559-7.771-23.473-12.314-15.44-34.893-17.983-50.333-5.669-15.44 12.313-17.983 34.893-5.67 50.333 5.367 6.73 12.808 11.208 21.17 12.819l70.909 88.911c-9.218 8.313-17.756 17.369-25.391 26.999-2.573 3.246-2.028 7.963 1.218 10.537 1.378 1.093 3.021 1.624 4.654 1.624 2.211 0 4.401-.974 5.882-2.841 14.882-18.771 33.416-35.229 53.808-47.82 45.559 30.451 61.669 63.271 60.239 61.143 5.628 10.63 4.933 13.832 4.262 26.937h-11.21c-3.176-9.851-12.427-17-23.321-17-13.51 0-24.5 10.991-24.5 24.5s10.99 24.5 24.5 24.5c10.894 0 20.146-7.149 23.321-17h9.89c-4.944 38.239-20.253 52.549-35.201 62.281h-54.054c-5.785-13.431-6.01-34.653-.503-59.231.906-4.042-1.637-8.053-5.679-8.958-4.039-.908-8.053 1.637-8.958 5.679-5.545 24.747-5.763 46.391-.798 62.51h-5.454c-16.565 0-28.138-5.286-34.398-15.712-9.715-16.182-6.049-44.45 9.568-73.772 1.946-3.656.562-8.198-3.095-10.145-3.656-1.946-8.198-.562-10.145 3.094-18.354 34.459-21.788 67.559-9.189 88.545 6.299 10.486 19.61 22.989 47.259 22.989h287.722c37.336 0 48.983-22.367 52.602-35.699 6.016-22.161-.534-52.047-17.969-81.995-10.896-18.716-25.252-36.119-41.933-51.159l70.914-88.917c8.363-1.612 15.803-6.089 21.171-12.819 12.313-15.441 9.77-38.021-5.67-50.334zm-289.402 245.642c-5.238 0-9.5-4.262-9.5-9.5s4.262-9.5 9.5-9.5 9.5 4.262 9.5 9.5c0 5.239-4.262 9.5-9.5 9.5zm236.504-198.971c2.119 3.478 4.87 6.649 8.235 9.332 3.321 2.649 7.014 4.647 10.924 5.963l-29.296 36.734c-3.127-6.548-8.426-13.243-15.57-19.793zm-41.099 38.789c.111.1.217.202.335.296.068.054.145.089.213.142 6.618 5.113 11.596 10.504 14.814 15.492-43.327 12.076-88.549 46.072-112.751 79.56.332-13.022 1.378-26.573 4.2-39.989l43.676-40.096c8.566-7.87 15.497-17.22 20.552-27.474.164-.29.312-.588.436-.896.606-1.263 1.183-2.54 1.732-3.83 10.355 5.248 19.464 10.992 26.793 16.795zm-152.859 46.031c-.352-.296-.699-.6-1.039-.913l-44.399-40.758c-6.284-5.773-11.506-12.501-15.559-19.848 18.884-28.898 61.433-44.824 84.876-44.824 23.442 0 65.992 15.926 84.876 44.825-4.053 7.346-9.272 14.076-15.557 19.846-3.164 2.904-44.894 41.192-45.479 41.706-5.202 4.578-12.004 6.879-18.99 6.879h-9.699c-11.764-.002-19.13-6.971-19.03-6.913zm152.281-126.759c7.742 0 14.04 6.298 14.04 14.04v4.99c0 7.741-6.298 14.04-14.04 14.04h-18.912c.116-1.883.181-3.774.181-5.67v-27.4zm-223.071-44.006c0-1.822.812-3.536 2.229-4.702 12.104-9.964 26.713-24.234 35.171-35.427 28.678 25.304 65.82 35.969 67.509 36.444 2.259.634 4.688.177 6.56-1.241s2.972-3.63 2.972-5.979v-24.907l70.767 23.93c2.473.836 4.134 3.152 4.134 5.762v77.525c0 7.409-1.086 14.714-3.117 21.722-23.847-28.588-66.28-43.707-91.554-43.707s-67.707 15.119-91.554 43.707c-2.031-7.007-3.117-14.313-3.117-21.722zm-33.731 77.076c-7.742 0-14.04-6.298-14.04-14.04v-4.99c0-7.742 6.298-14.04 14.04-14.04h18.731s.065 31.187.181 33.07zm-15.969 41.105c-7.145 6.55-12.444 13.245-15.57 19.793l-29.296-36.734c3.91-1.316 7.603-3.313 10.924-5.962 3.364-2.683 6.115-5.854 8.235-9.332zm-72.549-37.926c-7.156-8.974-5.677-22.096 3.295-29.253 3.826-3.052 8.408-4.534 12.959-4.534 6.122 0 12.19 2.681 16.295 7.828 7.156 8.974 5.678 22.097-3.296 29.254-8.992 7.174-22.079 5.7-29.253-3.295zm91.819 101.404-20.534-25.747c11.507 3.47 23.362 8.637 35.065 15.214-4.967 3.307-9.822 6.819-14.531 10.533zm-19.24-40.995c3.218-4.989 8.195-10.379 14.814-15.492.068-.053.145-.087.213-.142.118-.094.225-.197.335-.296 7.328-5.803 16.437-11.546 26.794-16.794.549 1.288 1.125 2.564 1.73 3.826.125.31.273.61.438.902 5.055 10.253 11.986 19.603 20.553 27.473l43.675 40.094c2.822 13.415 3.868 26.967 4.199 39.989-22.717-31.433-68.435-67.208-112.751-79.56zm125.532 49.779c4.459 1.465 9.161 2.233 13.958 2.233h9.699c4.797 0 9.5-.769 13.958-2.233-3.247 23.768-2.399 67.75-1.928 77.473h-33.76c.633-13.036 1.185-54.697-1.927-77.473zm.7 92.473h36.217c3.728 31.323 13.87 49.733 26.398 62.281h-89.013c12.528-12.548 22.669-30.958 26.398-62.281zm183.638-32.866c15.202 26.113 21.355 52.475 16.457 70.518-4.436 16.343-17.264 24.629-38.126 24.629h-5.454c4.965-16.119 4.748-37.763-.798-62.51-.906-4.042-4.921-6.586-8.958-5.679-4.042.905-6.585 4.917-5.679 8.958 5.507 24.578 5.283 45.8-.503 59.231h-54.054c-14.948-9.732-30.257-24.042-35.201-62.281h9.89c3.176 9.851 12.427 17 23.321 17 13.51 0 24.5-10.991 24.5-24.5s-10.99-24.5-24.5-24.5c-10.894 0-20.146 7.149-23.321 17h-11.21c-.18-3.51-.426-11.683-.296-13.834 1.053-15.825 25.251-41.736 37.757-53.096 8.595-7.809 17.692-14.901 27.022-21.138 28.49 17.584 52.941 42.354 69.153 70.202zm-108.604 25.366c0-5.238 4.262-9.5 9.5-9.5s9.5 4.262 9.5 9.5-4.262 9.5-9.5 9.5-9.5-4.261-9.5-9.5zm53.639-104.288c11.704-6.578 23.56-11.746 35.069-15.216l-20.541 25.756c-4.702-3.706-9.549-7.227-14.528-10.54zm106.354-90.873c-3.467 4.347-8.419 7.084-13.944 7.706-5.525.623-10.962-.944-15.309-4.411-8.974-7.156-10.452-20.28-3.297-29.254 4.105-5.147 10.173-7.828 16.296-7.828 4.551 0 9.132 1.482 12.958 4.534 8.973 7.156 10.452 20.279 3.296 29.253z"/><path d="m201.79 184.432c-4.143 0-7.5 3.358-7.5 7.5v7.654c0 4.142 3.357 7.5 7.5 7.5s7.5-3.358 7.5-7.5v-7.654c0-4.142-3.358-7.5-7.5-7.5z"/><path d="m310.21 184.432c-4.143 0-7.5 3.358-7.5 7.5v7.654c0 4.142 3.357 7.5 7.5 7.5s7.5-3.358 7.5-7.5v-7.654c0-4.142-3.357-7.5-7.5-7.5z"/><path d="m185.468 176.368c.749 0 1.512-.113 2.264-.351 9.457-2.992 18.654-2.993 28.115 0 3.948 1.249 8.164-.94 9.412-4.889 1.25-3.949-.939-8.164-4.889-9.413-12.331-3.9-24.835-3.898-37.162 0-3.949 1.25-6.139 5.464-4.889 9.413 1.012 3.197 3.966 5.24 7.149 5.24z"/><path d="m296.152 176.017c9.461-2.993 18.656-2.992 28.115 0 .752.238 1.515.351 2.264.351 3.184 0 6.138-2.043 7.148-5.24 1.25-3.949-.939-8.164-4.889-9.413-12.328-3.9-24.832-3.9-37.162 0-3.949 1.249-6.139 5.463-4.889 9.413 1.25 3.949 5.467 6.138 9.413 4.889z"/></g></g></svg>